<?xml version="1.0" encoding="utf-8"?>
<!-- Generator: Adobe Illustrator 19.2.1, SVG Export Plug-In . SVG Version: 6.00 Build 0)  -->
<svg version="1.2" baseProfile="tiny" id="Layer_1" xmlns="http://www.w3.org/2000/svg" xmlns:xlink="http://www.w3.org/1999/xlink"
	 x="0px" y="0px" viewBox="0 0 100 100" xml:space="preserve">
<rect x="-3.4" y="-2" fill="#9E0000" width="104" height="103.6"/>
<path fill="#FFFFFF" stroke="#FFFFFF" stroke-width="0.1238" stroke-miterlimit="10" d="M17.7,45.3c-1.8,0.8-2.8,2.3-3.2,4.1
	c-1,0.2-1.8,0.5-2.7,0.7c-0.2,0-0.6-0.1-0.8-0.3c-1.2-1.4-1.8-3-2.2-4.7c-0.2-1.2,0.2-1.7,1.4-2.1C12.7,42.1,16,43.1,17.7,45.3z"/>
<path fill="#FFFFFF" stroke="#FFFFFF" stroke-width="0.1238" stroke-miterlimit="10" d="M14.6,36.2c0.4,0.1,0.8,0,1.1,0.2
	c1.2,0.8,2.4,1.7,3.6,2.6c0.6,0.4,0.8,1,0.6,1.7c-0.2,0.9-0.4,1.8-0.7,2.6C19,44,18.6,44.1,18,43.8c-1.2-0.7-2.5-1.3-3.8-2
	c-0.3-0.2-0.7-0.5-0.7-0.8c-0.3-1.4-0.2-2.8,0.5-4.1C14.1,36.7,14.4,36.5,14.6,36.2z"/>
<path fill="#FFFFFF" stroke="#FFFFFF" stroke-width="0.1238" stroke-miterlimit="10" d="M25.1,53.6c-1.2,2.4-2.7,4.3-5.3,4.9
	c-0.5,0.1-1.1,0-1.6-0.1c-0.3-0.1-0.6-0.4-0.6-0.6c-0.4-1.8-0.1-3.5,1.1-5c0.2-0.2,0.7-0.4,1-0.4c0.9,0,1.8,0,2.7,0.2
	C23.2,52.8,24,53.2,25.1,53.6z"/>
<path fill="#FFFFFF" stroke="#FFFFFF" stroke-width="0.1238" stroke-miterlimit="10" d="M13.4,25.7c0.9,0.7,1.9,1.4,2.8,2.2
	c0.8,0.7,1.1,1.8,0.8,2.8c-0.3,1.2-0.7,2.4-1.2,3.5c-0.2,0.6-0.9,0.6-1.3,0.3c-0.8-0.7-1.7-1.5-2.3-2.5c-0.3-0.5-0.2-1.3-0.1-2
	c0.1-1.1,0.3-2.1,0.5-3.2c0.1-0.4,0.1-0.8,0.1-1.2C13,25.7,13.2,25.7,13.4,25.7z"/>
<path fill="#FFFFFF" stroke="#FFFFFF" stroke-width="0.1238" stroke-miterlimit="10" d="M27.4,42.3c0.2,1.3,0.6,2.5,0.6,3.8
	c0,1.9-0.3,3.8-1.3,5.5c-0.5,0.8-1,1.1-1.9,0.7c-0.5-0.2-1.1-0.4-1.8-0.7c0.4-1.2,0.7-2.3,1.3-3.3c0.8-1.3,1.5-2.6,1.8-4.1
	c0.1-0.6,0.5-1.2,0.7-1.9C27.1,42.3,27.3,42.3,27.4,42.3z"/>
<path fill="#FFFFFF" stroke="#FFFFFF" stroke-width="0.1238" stroke-miterlimit="10" d="M18.3,29.5c1.4,1.6,2.7,3.2,3.5,5.2
	c0.1,0.3,0,0.7-0.1,0.9c-0.4,0.6-0.8,1.2-1.2,1.7c-0.3,0.5-0.7,0.5-1.1,0.1c-0.9-0.7-1.9-1.4-3.1-2.2C16.9,33.5,17.6,31.5,18.3,29.5
	z"/>
<path fill="#FFFFFF" stroke="#FFFFFF" stroke-width="0.1238" stroke-miterlimit="10" d="M10.6,51.9c0.7-0.3,1.2-0.4,1.6-0.7
	c1.8-1,3.4-0.6,4.9,0.7c0.2,0.2,0.4,0.4,0.4,0.6c0.2,1.3-1.4,2.8-2.7,2.5C13.1,54.6,11.8,53.5,10.6,51.9z"/>
<path fill="#FFFFFF" stroke="#FFFFFF" stroke-width="0.1238" stroke-miterlimit="10" d="M12,40.8c-0.3-0.6-0.6-1.2-0.8-1.9
	c-0.4-1.2-0.7-2.4-1.2-3.6c-0.5-1.3,0-2.5,0.5-3.9c1.2,1.3,2.4,2.5,3.6,3.8c-1.8,1.5-1.6,3.5-1.7,5.5C12.3,40.8,12.1,40.8,12,40.8z"
	/>
<path fill="#FFFFFF" stroke="#FFFFFF" stroke-width="0.1238" stroke-miterlimit="10" d="M22.1,51.2c-2,0.3-4,0-5.8-1.4
	c-0.1-0.1-0.2-0.2-0.3-0.3c-0.4-0.7-0.1-2.4,0.8-3.3c0.6-0.6,1.3-0.6,1.9,0.1c1.3,1.5,2.4,3,3.6,4.6C22.2,51,22.2,51.1,22.1,51.2z"
	/>
<path fill="#FFFFFF" stroke="#FFFFFF" stroke-width="0.1238" stroke-miterlimit="10" d="M22.5,50.1c-1-1.5-1.9-2.8-2.8-4.1
	c-0.4-0.7-0.3-1.4,0.2-1.9c0.4-0.3,1.1-0.5,1.6-0.5c1.9,0.3,2.7,2,1.9,3.7C23.2,48.2,22.9,49,22.5,50.1z"/>
<path fill="#FFFFFF" stroke="#FFFFFF" stroke-width="0.1238" stroke-miterlimit="10" d="M24,43.9c-1-0.5-1.9-0.9-2.7-1.5
	c-0.3-0.2-0.7-0.7-0.7-1c0.2-1.3,0.5-2.7,0.9-4c0.2-0.8,1.2-0.7,1.5,0.2c0.4,1.4,0.7,2.8,1,4.2C24.2,42.5,24.1,43.3,24,43.9z"/>
<path fill="#FFFFFF" stroke="#FFFFFF" stroke-width="0.1238" stroke-miterlimit="10" d="M8.7,33.1c0.2,0.9,0.3,1.8,0.6,2.7
	c0.5,1.5,1,3,1.5,4.5c0.3,0.8,0.1,1.2-0.8,1.6c-2.2,0.8-2.1,1-2.2-1.2c0-1.9-0.1-3.9,0-5.8c0-0.6,0.3-1.2,0.4-1.8
	C8.5,33.1,8.6,33.1,8.7,33.1z"/>
<path fill="#FFFFFF" stroke="#FFFFFF" stroke-width="0.1238" stroke-miterlimit="10" d="M16.7,58.4c-3.6-0.4-5.8-2.5-7-6.1
	c0.7,0.7,1.3,1.2,1.8,1.7c0.9,1,2.1,1.5,3.4,1.9C16.5,56.4,16.5,56.5,16.7,58.4z"/>
<path fill="#FFFFFF" stroke="#FFFFFF" stroke-width="0.1238" stroke-miterlimit="10" d="M25.9,54.5c0.5,0.7,1,1.4,1.6,2.1
	c-1.5,1.4-3.5,1.9-5.6,2.1C23.3,57.4,24.6,55.9,25.9,54.5z"/>
<path fill="#FFFFFF" stroke="#FFFFFF" stroke-width="0.1238" stroke-miterlimit="10" d="M11.1,50.6c-3.3-0.1-4.8-4.6-3.7-8.7
	c0.2,0.5,0.4,0.9,0.5,1.4c0.2,1.3,0.2,2.6,0.7,3.8c0.4,1,1.2,1.8,1.8,2.7C10.5,50.1,10.8,50.3,11.1,50.6z"/>
<path fill="#FFFFFF" stroke="#FFFFFF" stroke-width="0.1238" stroke-miterlimit="10" d="M20.9,59.4c-0.2,0.3-0.3,0.6-0.6,0.9
	c-1.1,0.9-2.3,1.2-3.7,1c-0.4-0.1-0.7-0.7-1-1.2c-0.2-0.3-0.1-0.7-0.2-1C17.2,59.2,19,59.3,20.9,59.4z"/>
<path fill="#FFFFFF" stroke="#FFFFFF" stroke-width="0.1238" stroke-miterlimit="10" d="M24,35.8c1.8,0.8,2.6,6.8,1.2,9
	C24.8,41.9,24.4,38.9,24,35.8z"/>
<path fill="#FFFFFF" stroke="#FFFFFF" stroke-width="0.1238" stroke-miterlimit="10" d="M11.6,26.9c0.2,1.8,0.3,3.5-1.9,4.2
	C9.8,29.4,10.3,28,11.6,26.9z"/>
<path fill="#FFFFFF" stroke="#FFFFFF" stroke-width="0.1238" stroke-miterlimit="10" d="M28,51.6c-0.1,0.8-0.2,1.7-0.4,2.5
	c0,0.2-0.4,0.4-0.6,0.5c-0.1-0.3-0.4-0.6-0.4-0.8c0.2-0.8,0.6-1.6,0.9-2.4C27.8,51.5,27.9,51.6,28,51.6z"/>
<g>
	<rect x="33" y="41.1" fill="none" width="69.4" height="26.4"/>
	<path fill="#FFFFFF" d="M41.4,46.4c0.2,0.5,0.2,1.1,0.1,1.8c-0.1,0.7-0.3,1.3-0.6,1.8c-0.2,0.3-0.4,0.5-0.7,0.7
		c0.4,0.2,0.6,0.6,0.8,1.1c0.1,0.5,0.2,1.1,0.1,1.8c-0.1,0.7-0.3,1.4-0.6,1.9c-0.2,0.4-0.4,0.7-0.7,1c-0.3,0.3-0.6,0.5-1,0.6
		s-0.8,0.2-1.2,0.2h-3.7l1.7-12.1h3.9C40.4,45.1,41.1,45.6,41.4,46.4z M36.2,51.9l-0.5,3.2h2c0.4,0,0.6-0.1,0.9-0.2
		c0.4-0.3,0.6-0.8,0.8-1.5c0.1-0.6,0-1.1-0.3-1.3c-0.2-0.1-0.4-0.2-0.8-0.2H36.2z M36.9,47.2l-0.4,2.7h2c0.4,0,0.7-0.1,0.9-0.3
		c0.2-0.2,0.4-0.6,0.5-1.1c0.1-0.6,0-0.9-0.3-1.1c-0.2-0.1-0.6-0.2-0.9-0.2H36.9z"/>
	<path fill="#FFFFFF" d="M46.6,48.1l-0.3,2.4c-0.1,0-0.2,0-0.3,0c-0.1,0-0.1,0-0.2,0c-0.6,0-1.1,0.3-1.4,0.9
		c-0.2,0.3-0.3,0.9-0.4,1.6l-0.6,4.3h-1.6l1.3-8.9h1.5l-0.2,1.6c0.3-0.6,0.6-1,0.8-1.2c0.3-0.4,0.8-0.5,1.2-0.5c0,0,0.1,0,0.1,0
		C46.5,48.1,46.6,48.1,46.6,48.1z"/>
	<path fill="#FFFFFF" d="M52.1,49.8c0.2,0.5,0.2,1.1,0.2,1.8c0,0.4-0.1,1-0.2,1.8H48c-0.1,0.9,0,1.5,0.3,1.9
		c0.2,0.2,0.4,0.3,0.7,0.3c0.3,0,0.6-0.1,0.8-0.4c0.1-0.1,0.3-0.4,0.4-0.6h1.6c-0.1,0.5-0.4,1.1-0.8,1.6c-0.6,0.9-1.4,1.3-2.3,1.3
		c-0.8,0-1.4-0.4-1.9-1.1c-0.5-0.7-0.6-1.9-0.4-3.6c0.2-1.5,0.6-2.7,1.3-3.6c0.6-0.8,1.4-1.2,2.2-1.2c0.5,0,0.9,0.1,1.3,0.4
		C51.6,48.7,51.9,49.2,52.1,49.8z M48.3,51.8h2.4c0.1-0.6,0-1.1-0.2-1.4c-0.2-0.3-0.4-0.5-0.8-0.5c-0.4,0-0.7,0.2-0.9,0.5
		S48.4,51.3,48.3,51.8z"/>
	<path fill="#FFFFFF" d="M56.8,48.3h1.6l0,6.4l1.8-6.4h1.6l-3,8.9h-1.6l0-6.5l-1.9,6.5h-1.6l-0.4-8.9H55l0,6.4L56.8,48.3z"/>
	<path fill="#FFFFFF" d="M63.4,45.1h5.7l-0.3,2.1h-4L64.3,50h3.5l-0.3,2.1H64l-0.7,5.1h-1.7L63.4,45.1z"/>
	<path fill="#FFFFFF" d="M69.8,48.3h1.6l-1.3,8.9h-1.6L69.8,48.3z M71.5,47.2h-1.6l0.3-2.2h1.6L71.5,47.2z"/>
	<path fill="#FFFFFF" d="M77.4,49.8c0.2,0.5,0.2,1.1,0.2,1.8c0,0.4-0.1,1-0.2,1.8h-4.1c-0.1,0.9,0,1.5,0.3,1.9
		c0.2,0.2,0.4,0.3,0.7,0.3c0.3,0,0.6-0.1,0.8-0.4c0.1-0.1,0.3-0.4,0.4-0.6h1.6c-0.1,0.5-0.4,1.1-0.8,1.6c-0.6,0.9-1.4,1.3-2.3,1.3
		c-0.8,0-1.4-0.4-1.9-1.1c-0.5-0.7-0.6-1.9-0.4-3.6c0.2-1.5,0.6-2.7,1.3-3.6c0.6-0.8,1.4-1.2,2.2-1.2c0.5,0,0.9,0.1,1.3,0.4
		C77,48.7,77.2,49.2,77.4,49.8z M73.6,51.8H76c0.1-0.6,0-1.1-0.2-1.4c-0.2-0.3-0.4-0.5-0.8-0.5c-0.4,0-0.7,0.2-0.9,0.5
		S73.7,51.3,73.6,51.8z"/>
	<path fill="#FFFFFF" d="M84.3,51.2l-0.9,6h-1.6l0.8-5.4c0.1-0.5,0.1-0.8,0-1.1c-0.1-0.5-0.3-0.7-0.8-0.7c-0.5,0-0.9,0.3-1.2,1
		c-0.2,0.4-0.3,0.8-0.3,1.4l-0.7,4.8H78l1.3-8.9h1.5l-0.2,1.3c0.3-0.5,0.5-0.8,0.7-1c0.4-0.4,0.8-0.5,1.3-0.5c0.6,0,1.1,0.2,1.4,0.7
		C84.4,49.3,84.4,50.1,84.3,51.2z"/>
	<path fill="#FFFFFF" d="M89.9,49.4l0.6-4.3h1.6l-1.7,12.1h-1.5l0.2-1.2c-0.3,0.5-0.6,0.9-0.9,1.2c-0.3,0.2-0.7,0.4-1.1,0.4
		c-0.7,0-1.2-0.4-1.6-1.3S85,54.3,85.2,53c0.2-1.5,0.6-2.7,1.2-3.6s1.3-1.3,2.1-1.3c0.4,0,0.7,0.1,0.9,0.4S89.8,49,89.9,49.4z
		 M89.5,52.9c0.2-1.1,0.1-1.9-0.2-2.3c-0.2-0.3-0.4-0.4-0.7-0.4c-0.5,0-0.8,0.3-1.1,0.8s-0.5,1.2-0.6,1.9c-0.1,0.8-0.1,1.5,0,2
		c0.1,0.5,0.4,0.7,0.9,0.7s0.8-0.2,1.1-0.7S89.4,53.7,89.5,52.9z"/>
</g>
<g>
</g>
<g>
</g>
<g>
</g>
<g>
</g>
<g>
</g>
<g>
</g>
<g>
</g>
<g>
</g>
<g>
</g>
<g>
</g>
<g>
</g>
<g>
</g>
<g>
</g>
<g>
</g>
<g>
</g>
</svg>
