<?xml version="1.0" encoding="utf-8"?>
<!-- Generator: Adobe Illustrator 19.2.1, SVG Export Plug-In . SVG Version: 6.00 Build 0)  -->
<svg version="1.2" baseProfile="tiny" id="Layer_1" xmlns="http://www.w3.org/2000/svg" xmlns:xlink="http://www.w3.org/1999/xlink"
	 x="0px" y="0px" viewBox="0 0 100 100" xml:space="preserve">
<rect x="-8.4" y="-1" fill="#A6A6A6" width="113.3" height="105.3"/>
<g>
	<ellipse transform="matrix(0.866 -0.5 0.5 0.866 -19.0373 29.1316)" fill="#FFFFFF" cx="44.8" cy="50.1" rx="9.3" ry="9.3"/>
	
		<ellipse transform="matrix(0.866 -0.5 0.5 0.866 -19.0373 29.1316)" fill="none" stroke="#F16522" stroke-width="3.6851" stroke-miterlimit="10" cx="44.8" cy="50.1" rx="9.3" ry="9.3"/>
</g>
<g>
	<path fill="#231F20" d="M43.6,56.1v-8.8h-4.2v-1.8h11.2v1.8h-4.2v8.8H43.6z"/>
</g>
<rect x="53" y="43.8" fill="#F16522" width="83.3" height="12.6"/>
<g>
	<path fill="#231F20" d="M56,54.4h-2.2v-6.8h2.1v1c0.4-0.5,0.7-0.8,1-0.9c0.3-0.1,0.6-0.2,1-0.2c0.5,0,1,0.1,1.5,0.3l-0.7,1.6
		c-0.4-0.2-0.7-0.3-1.1-0.3c-0.3,0-0.6,0.1-0.8,0.2c-0.2,0.1-0.4,0.4-0.5,0.8C56,50.4,56,51.2,56,52.3V54.4z"/>
	<path fill="#231F20" d="M61.9,49.7l-2-0.3c0.2-0.7,0.6-1.1,1.2-1.5c0.6-0.3,1.4-0.5,2.5-0.5c1,0,1.7,0.1,2.2,0.3
		c0.5,0.2,0.8,0.4,1,0.7c0.2,0.3,0.3,0.8,0.3,1.6l0,2.1c0,0.6,0,1,0.1,1.3c0.1,0.3,0.2,0.6,0.4,0.9h-2.2c-0.1-0.1-0.1-0.3-0.2-0.5
		c0-0.1-0.1-0.2-0.1-0.2c-0.4,0.3-0.8,0.5-1.2,0.7s-0.9,0.2-1.4,0.2c-0.9,0-1.6-0.2-2.1-0.6c-0.5-0.4-0.8-0.9-0.8-1.4
		c0-0.4,0.1-0.7,0.3-1s0.6-0.5,1-0.7c0.4-0.2,1-0.3,1.8-0.4c1.1-0.2,1.8-0.3,2.2-0.4v-0.2c0-0.3-0.1-0.6-0.3-0.7
		c-0.2-0.1-0.6-0.2-1.2-0.2c-0.4,0-0.7,0.1-0.9,0.2C62.2,49.2,62,49.4,61.9,49.7z M64.9,51.1c-0.3,0.1-0.7,0.2-1.4,0.3
		c-0.6,0.1-1,0.2-1.2,0.3c-0.3,0.2-0.4,0.4-0.4,0.6c0,0.3,0.1,0.5,0.4,0.7c0.2,0.2,0.5,0.3,0.9,0.3c0.4,0,0.8-0.1,1.2-0.3
		c0.3-0.2,0.5-0.4,0.5-0.6c0.1-0.2,0.1-0.4,0.1-0.9V51.1z"/>
	<path fill="#231F20" d="M77,54.4h-2.2v-3.5c0-0.7,0-1.2-0.1-1.4c-0.1-0.2-0.3-0.4-0.5-0.5c-0.2-0.1-0.5-0.2-0.8-0.2
		c-0.4,0-0.7,0.1-1,0.3c-0.3,0.2-0.5,0.4-0.6,0.7c-0.1,0.3-0.2,0.8-0.2,1.6v3.1h-2.2v-6.8h2.1v1c0.7-0.8,1.7-1.2,2.8-1.2
		c0.5,0,0.9,0.1,1.4,0.2c0.4,0.1,0.7,0.3,0.9,0.5c0.2,0.2,0.4,0.5,0.4,0.8c0.1,0.3,0.1,0.7,0.1,1.2V54.4z"/>
	<path fill="#231F20" d="M78.5,52.5l2.3-0.3c0.1,0.3,0.3,0.6,0.6,0.8c0.3,0.2,0.7,0.3,1.2,0.3c0.6,0,1-0.1,1.3-0.3
		c0.2-0.1,0.3-0.3,0.3-0.5c0-0.1-0.1-0.2-0.2-0.3c-0.1-0.1-0.4-0.2-0.8-0.2c-1.8-0.3-3-0.6-3.4-0.9c-0.7-0.4-1-0.9-1-1.5
		c0-0.6,0.3-1.1,0.9-1.5c0.6-0.4,1.5-0.6,2.7-0.6c1.2,0,2,0.2,2.6,0.5c0.6,0.3,1,0.8,1.2,1.3L84,49.6c-0.1-0.3-0.3-0.5-0.5-0.6
		s-0.6-0.2-1.1-0.2c-0.6,0-1,0.1-1.3,0.2c-0.2,0.1-0.3,0.2-0.3,0.4c0,0.1,0.1,0.2,0.2,0.3c0.2,0.1,0.9,0.3,2.1,0.5
		c1.2,0.2,2,0.5,2.5,0.8c0.5,0.3,0.7,0.8,0.7,1.3c0,0.6-0.3,1.2-1,1.6c-0.7,0.4-1.6,0.7-2.9,0.7c-1.2,0-2.1-0.2-2.7-0.6
		C79.2,53.6,78.7,53.1,78.5,52.5z"/>
	<path fill="#231F20" d="M88.4,46.7V45h2.2v1.7H88.4z M88.4,54.4v-6.8h2.2v6.8H88.4z"/>
	<path fill="#231F20" d="M96.9,47.6V49h-1.5v2.7c0,0.6,0,0.9,0,1c0,0.1,0.1,0.2,0.2,0.2c0.1,0.1,0.2,0.1,0.4,0.1
		c0.2,0,0.5-0.1,0.9-0.2l0.2,1.4c-0.5,0.2-1.1,0.3-1.8,0.3c-0.4,0-0.8-0.1-1.1-0.2c-0.3-0.1-0.6-0.2-0.7-0.4
		c-0.2-0.2-0.3-0.4-0.3-0.7c0-0.2-0.1-0.6-0.1-1.3v-3h-1v-1.4h1v-1.3l2.3-1v2.4H96.9z"/>
</g>
<g>
	<rect x="3.3" y="43.2" fill="none" width="32.6" height="21.6"/>
	<path d="M4.4,54.4v-8.9h2.2V49h4.4v-3.5h2.2v8.9h-2.2v-3.9H6.7v3.9H4.4z"/>
	<path d="M20.9,54.4v-1c-0.3,0.3-0.7,0.6-1.2,0.8c-0.5,0.2-1,0.3-1.5,0.3c-0.5,0-1-0.1-1.5-0.3c-0.4-0.2-0.7-0.5-0.9-0.8
		c-0.2-0.3-0.3-0.8-0.3-1.4v-4.1h2.1v3c0,0.9,0,1.5,0.1,1.7c0.1,0.2,0.2,0.4,0.4,0.5s0.5,0.2,0.8,0.2c0.4,0,0.7-0.1,1-0.2
		c0.3-0.2,0.5-0.4,0.6-0.6c0.1-0.2,0.2-0.8,0.2-1.7v-2.7h2.1v6.5H20.9z"/>
	<path d="M25,54.4v-8.9h2.1v3.2c0.7-0.6,1.4-0.9,2.3-0.9c1,0,1.8,0.3,2.4,0.9c0.6,0.6,1,1.4,1,2.5c0,1.1-0.3,2-1,2.5
		c-0.7,0.6-1.5,0.9-2.4,0.9c-0.5,0-0.9-0.1-1.4-0.3s-0.8-0.5-1.2-0.8v0.9H25z M27.2,51c0,0.7,0.1,1.2,0.4,1.5
		c0.4,0.5,0.9,0.7,1.5,0.7c0.5,0,0.9-0.2,1.2-0.5c0.3-0.3,0.5-0.8,0.5-1.5c0-0.7-0.2-1.3-0.5-1.6c-0.3-0.3-0.8-0.5-1.3-0.5
		c-0.5,0-0.9,0.2-1.3,0.5C27.3,49.9,27.2,50.3,27.2,51z"/>
</g>
<g>
</g>
<g>
</g>
<g>
</g>
<g>
</g>
<g>
</g>
<g>
</g>
<g>
</g>
<g>
</g>
<g>
</g>
<g>
</g>
<g>
</g>
<g>
</g>
<g>
</g>
<g>
</g>
<g>
</g>
</svg>
