<?xml version="1.0" encoding="utf-8"?>
<!-- Generator: Adobe Illustrator 22.0.0, SVG Export Plug-In . SVG Version: 6.00 Build 0)  -->
<svg version="1.1" id="Layer_1" xmlns="http://www.w3.org/2000/svg" xmlns:xlink="http://www.w3.org/1999/xlink" x="0px" y="0px"
	 viewBox="0 0 300 300" style="enable-background:new 0 0 300 300;" xml:space="preserve">
<style type="text/css">
	.st0{fill:#04819E;}
	.st1{fill:#543D2B;}
	.st2{fill:#FFFFFF;}
	.st3{fill:#FF7F00;}
</style>
<rect x="-1" y="-1" class="st0" width="302" height="302"/>
<g>
	<g>
		
			<ellipse transform="matrix(0.5544 -0.8322 0.8322 0.5544 18.0729 191.8576)" class="st1" cx="188.2" cy="79.1" rx="51.7" ry="29.8"/>
		<g>
			<g>
				<path class="st2" d="M211.2,30.2c-0.4,13.1-4.5,27.8-12.8,38.1c-5.8,7.2-15,9.6-20.6,16.9c-5.3,7-8.1,15.8-9.8,24.3
					c-1.1,5.4-2,10.9-2.2,16.4c-0.1,1.1,0,2.7,0,3.6c0.6-13.2,3.5-28.3,11.2-39.3c5.3-7.7,14.4-10,20.4-16.8
					c5.9-6.7,9.4-15.3,11.5-24c1.2-5.1,2.2-10.3,2.3-15.5C211.3,32.7,211.2,31.1,211.2,30.2L211.2,30.2z"/>
			</g>
		</g>
	</g>
	<g>
		
			<ellipse transform="matrix(0.8322 -0.5544 0.5544 0.8322 -64.3123 133.3678)" class="st1" cx="188.2" cy="172.9" rx="29.8" ry="51.7"/>
		<g>
			<g>
				<path class="st2" d="M211.2,218.2c-0.4-12.5-4.1-26.3-11.5-36.5c-2.7-3.8-6.1-7.1-10-9.5c-3.9-2.4-7.6-4-10.7-7.6
					c-5.8-6.6-8.7-15.5-10.7-23.9c-1.4-5.9-2.4-12.1-2.6-18.2c0,0.9-0.1,2.5,0,3.6c0.6,12.7,3.3,26.8,10.1,37.7
					c2.2,3.5,4.9,6.8,8.3,9c4.1,2.7,8.2,4.4,11.7,7.9c6.4,6.4,10.2,15.1,12.6,23.7c1.5,5.6,2.6,11.5,2.8,17.2
					C211.2,220.9,211.3,219.3,211.2,218.2L211.2,218.2z"/>
			</g>
		</g>
	</g>
	<g>
		
			<ellipse transform="matrix(0.8322 -0.5544 0.5544 0.8322 -25.1222 75.0804)" class="st1" cx="111.5" cy="79.1" rx="29.8" ry="51.7"/>
		<g>
			<g>
				<path class="st2" d="M88.5,33.8c0.4,12.5,4.1,26.3,11.5,36.5c2.7,3.8,6.1,7.1,10,9.5c3.9,2.4,7.6,4,10.7,7.6
					c5.8,6.6,8.7,15.5,10.7,23.9c1.4,5.9,2.4,12.1,2.6,18.2c0-0.9,0.1-2.5,0-3.6c-0.6-12.7-3.3-26.8-10.1-37.7
					c-2.2-3.5-4.9-6.8-8.3-9c-4.1-2.7-8.2-4.4-11.7-7.9c-6.4-6.4-10.2-15.1-12.6-23.7c-1.5-5.6-2.6-11.5-2.8-17.2
					C88.5,31.1,88.4,32.7,88.5,33.8L88.5,33.8z"/>
			</g>
		</g>
	</g>
	<g>
		
			<ellipse transform="matrix(0.5544 -0.8322 0.8322 0.5544 -94.2541 169.8511)" class="st1" cx="111.5" cy="172.9" rx="51.7" ry="29.8"/>
		<g>
			<g>
				<path class="st2" d="M88.5,221.8c0.4-13.1,4.5-27.8,12.8-38.1c5.8-7.2,15-9.6,20.6-16.9c5.3-7,8.1-15.8,9.8-24.3
					c1.1-5.4,2-10.9,2.2-16.4c0.1-1.1,0-2.7,0-3.6c-0.6,13.2-3.5,28.3-11.2,39.3c-5.3,7.7-14.4,10-20.4,16.8
					c-5.9,6.7-9.4,15.3-11.5,24c-1.2,5.1-2.2,10.3-2.3,15.5C88.4,219.3,88.5,220.9,88.5,221.8L88.5,221.8z"/>
			</g>
		</g>
	</g>
</g>
<g>
	<path class="st3" d="M30,257.5c0,0.8-0.1,1.6-0.2,2.4c-0.1,0.8-0.4,1.5-0.9,2.1c-0.5,0.6-1.1,1.1-2,1.5c-0.8,0.4-2,0.6-3.3,0.6
		c-0.8,0-1.5-0.1-2.1-0.2s-1.2-0.3-1.7-0.6c-0.5-0.2-1-0.5-1.4-0.8c-0.4-0.3-0.8-0.6-1.2-0.9l1.2-1.6c0.2,0.2,0.5,0.5,0.9,0.8
		c0.4,0.3,0.7,0.6,1.2,0.9s0.8,0.5,1.3,0.7c0.5,0.2,0.9,0.3,1.3,0.3c1,0,1.8-0.3,2.3-0.8c0.5-0.5,0.8-1.2,0.8-2.1v-18.5H30V257.5z"
		/>
	<path class="st3" d="M38,246.5v12.4c0,0.4,0.1,0.8,0.3,1.2c0.2,0.4,0.5,0.7,0.8,1c0.3,0.3,0.7,0.5,1.2,0.7c0.5,0.2,1,0.2,1.5,0.2
		c0.3,0,0.7-0.1,1.1-0.2c0.4-0.1,0.8-0.3,1.1-0.6c0.4-0.3,0.7-0.6,1-0.9c0.3-0.3,0.6-0.7,0.8-1.1v-12.7h3.4v17.4h-3.4v-3.3
		c-0.3,0.5-0.7,1-1.1,1.4c-0.5,0.4-1,0.8-1.5,1.2c-0.5,0.3-1.1,0.6-1.7,0.8c-0.6,0.2-1.1,0.3-1.6,0.3c-0.8,0-1.5-0.1-2.1-0.4
		c-0.7-0.3-1.2-0.7-1.7-1.2c-0.5-0.5-0.9-1.1-1.2-1.7c-0.3-0.7-0.4-1.3-0.4-2.1v-12.4H38z"/>
	<path class="st3" d="M58.9,263.1c0.5,0,0.9-0.1,1.3-0.2c0.4-0.1,0.7-0.3,1-0.6c0.3-0.2,0.5-0.5,0.7-0.8c0.2-0.3,0.2-0.6,0.2-1
		c0-0.5-0.1-1-0.4-1.4c-0.3-0.4-0.6-0.7-1.1-1.1c-0.4-0.3-0.9-0.6-1.5-0.9s-1.1-0.5-1.7-0.8c-0.6-0.3-1.1-0.6-1.7-0.9
		c-0.6-0.3-1.1-0.7-1.5-1.1c-0.4-0.4-0.8-0.9-1.1-1.4c-0.3-0.5-0.4-1.2-0.4-1.9c0-0.7,0.1-1.3,0.4-1.9c0.3-0.6,0.7-1.1,1.2-1.5
		c0.5-0.4,1.2-0.8,1.9-1c0.7-0.2,1.5-0.4,2.4-0.4c0.6,0,1.1,0,1.6,0.1c0.5,0.1,1,0.2,1.5,0.5c0.5,0.2,1,0.6,1.4,1
		c0.5,0.4,1,1,1.5,1.7l-1.3,1.1c-0.7-1.1-1.4-1.9-2.2-2.4c-0.8-0.5-1.7-0.8-2.6-0.8c-0.5,0-0.9,0.1-1.4,0.2c-0.4,0.1-0.8,0.3-1,0.5
		c-0.3,0.2-0.5,0.5-0.7,0.7c-0.2,0.3-0.2,0.6-0.2,0.9c0,0.5,0.1,1,0.4,1.4s0.7,0.7,1.2,1.1c0.5,0.3,1,0.6,1.6,0.9
		c0.6,0.3,1.2,0.5,1.9,0.8c0.6,0.3,1.3,0.6,1.9,0.9c0.6,0.3,1.1,0.7,1.6,1.1c0.5,0.4,0.9,0.9,1.2,1.4c0.3,0.5,0.4,1.2,0.4,1.9
		c0,0.7-0.1,1.4-0.4,2.1s-0.7,1.2-1.2,1.7s-1.2,0.8-2.1,1.1s-1.8,0.4-2.9,0.4c-0.5,0-1,0-1.6-0.1c-0.5-0.1-1.1-0.2-1.6-0.5
		c-0.5-0.2-1.1-0.6-1.6-1c-0.5-0.4-1.1-1-1.6-1.7l1.4-1.3c0.4,0.6,0.8,1.1,1.2,1.5c0.4,0.4,0.8,0.8,1.2,1c0.4,0.3,0.8,0.5,1.2,0.6
		C58,263,58.4,263.1,58.9,263.1z"/>
	<path class="st3" d="M78.3,261.7c-0.5,0.8-1.1,1.4-1.8,1.9c-0.8,0.5-1.7,0.7-2.8,0.7c-0.6,0-1.1-0.1-1.5-0.3
		c-0.4-0.2-0.8-0.5-1.1-0.8c-0.3-0.4-0.5-0.8-0.6-1.3s-0.2-1-0.2-1.7V248h-3v-0.9c1,0,1.8-0.2,2.4-0.5c0.6-0.3,1.1-0.8,1.5-1.4
		c0.4-0.6,0.7-1.3,0.9-2.1c0.2-0.8,0.4-1.6,0.6-2.5h1v5.9h3.9v1.5h-3.9v12.2c0,0.5,0.2,1,0.5,1.3c0.4,0.4,0.8,0.5,1.3,0.5
		c0.4,0,0.7-0.1,1.1-0.3c0.3-0.2,0.6-0.4,0.8-0.7L78.3,261.7z"/>
	<path class="st3" d="M90.9,241.4h9.1c1.2,0,2.3,0.1,3.3,0.4c1,0.3,1.9,0.6,2.6,1.1s1.3,1.1,1.7,1.8c0.4,0.7,0.6,1.4,0.6,2.3
		c0,0.6-0.1,1.2-0.2,1.6s-0.3,0.9-0.7,1.4c-0.3,0.4-0.7,0.8-1.3,1.2c-0.5,0.4-1.2,0.7-2,1.1v0.1c0.8,0.1,1.5,0.3,2.2,0.6
		c0.6,0.3,1.2,0.7,1.7,1.2c0.5,0.5,0.8,1,1.1,1.6c0.2,0.6,0.4,1.3,0.4,2.1c0,0.9-0.2,1.6-0.6,2.4c-0.4,0.7-0.9,1.4-1.6,1.9
		c-0.7,0.5-1.5,1-2.5,1.3s-2.1,0.5-3.2,0.5H90.9V241.4z M94.7,251.5h4.8c0.8,0,1.4-0.1,2-0.3s1.1-0.5,1.5-0.9
		c0.4-0.4,0.7-0.8,0.9-1.4c0.2-0.5,0.3-1.1,0.3-1.7c0-0.7-0.1-1.3-0.4-1.8c-0.2-0.5-0.6-1-1.2-1.4s-1.2-0.7-2-0.9s-1.8-0.3-2.9-0.3
		h-3.1V251.5z M94.7,262.2h4.1c1.1,0,2.1-0.1,2.9-0.3c0.8-0.2,1.5-0.5,2-0.9s0.9-0.8,1.2-1.4c0.3-0.5,0.4-1.1,0.4-1.8
		c0-0.7-0.1-1.4-0.3-2s-0.6-1.1-1.1-1.6c-0.5-0.5-1.2-0.8-2-1.1c-0.8-0.3-1.8-0.4-3.1-0.4h-4V262.2z"/>
	<path class="st3" d="M119.8,264.3c-1.2,0-2.3-0.2-3.3-0.7c-1-0.4-1.9-1-2.7-1.8c-0.8-0.8-1.4-1.7-1.8-2.7c-0.4-1-0.7-2.1-0.7-3.3
		c0-1.4,0.2-2.7,0.6-3.9s1-2.2,1.7-3.1c0.7-0.9,1.6-1.5,2.7-2s2.2-0.7,3.5-0.7c1.1,0,2.2,0.2,3.1,0.6c0.9,0.4,1.8,0.9,2.4,1.6
		c0.7,0.7,1.2,1.5,1.6,2.3c0.4,0.9,0.6,1.8,0.6,2.8h-13c0,1.2,0.1,2.2,0.4,3.2s0.7,1.9,1.3,2.6c0.5,0.7,1.2,1.3,1.9,1.7
		c0.7,0.4,1.6,0.6,2.5,0.6c0.7,0,1.5-0.1,2.2-0.4c0.7-0.2,1.3-0.6,1.9-1c0.6-0.4,1-0.9,1.4-1.4s0.7-1,0.8-1.6l1,0.4
		c-0.3,0.9-0.7,1.7-1.2,2.5c-0.5,0.8-1.2,1.5-1.9,2.1s-1.6,1-2.4,1.4C121.6,264.1,120.7,264.3,119.8,264.3z M123.3,252.1
		c0-0.7-0.1-1.3-0.4-1.8c-0.2-0.6-0.6-1.1-1-1.5c-0.4-0.4-0.9-0.7-1.4-1c-0.5-0.2-1.1-0.4-1.8-0.4c-0.5,0-1,0.1-1.5,0.4
		s-0.9,0.6-1.3,1c-0.4,0.4-0.7,0.9-0.9,1.5c-0.2,0.6-0.4,1.2-0.4,1.8H123.3z"/>
	<path class="st3" d="M131.3,246.5h3.4v3.2c1.1-1.2,2.1-2.1,3.3-2.7c1.1-0.6,2.3-0.9,3.5-0.9c0.6,0,1.2,0.1,1.7,0.4
		c0.5,0.3,1,0.7,1.4,1.1c0.4,0.5,0.7,1,0.9,1.7c0.2,0.6,0.3,1.3,0.3,2v12.5h-3.5V252c0-1.2-0.3-2-0.8-2.6s-1.2-0.9-2-0.9
		c-0.4,0-0.8,0.1-1.2,0.2c-0.4,0.1-0.8,0.3-1.2,0.5c-0.4,0.2-0.8,0.5-1.3,0.8c-0.4,0.3-0.8,0.6-1.2,1v12.9h-3.4V246.5z"/>
	<path class="st3" d="M160.3,241.4h7.8c1.4,0,2.5,0.1,3.6,0.4s1.9,0.7,2.6,1.2c0.7,0.5,1.2,1.1,1.5,1.9c0.3,0.7,0.5,1.5,0.5,2.4
		c0,0.7-0.1,1.4-0.4,2s-0.6,1.2-1.1,1.6c-0.5,0.5-1.1,0.9-1.8,1.3c-0.7,0.4-1.4,0.6-2.2,0.8l8.2,10.9h-4.4l-7.8-10.6h-2.6v10.6h-3.8
		V241.4z M164.1,252.2h2.2c0.8,0,1.6-0.1,2.4-0.3c0.7-0.2,1.3-0.5,1.9-1c0.5-0.4,0.9-0.9,1.2-1.5c0.3-0.6,0.4-1.3,0.4-2
		c0-0.7-0.1-1.3-0.4-1.8c-0.2-0.6-0.6-1-1-1.4s-0.9-0.7-1.5-1c-0.6-0.2-1.2-0.3-1.9-0.3h-3.3V252.2z"/>
	<path class="st3" d="M189.5,264.3c-1.3,0-2.6-0.2-3.7-0.7c-1.1-0.5-2.1-1.1-2.9-1.9c-0.8-0.8-1.5-1.7-1.9-2.8
		c-0.5-1.1-0.7-2.2-0.7-3.4c0-1.3,0.2-2.5,0.7-3.6c0.5-1.1,1.1-2.1,1.9-2.9s1.8-1.5,2.9-2s2.4-0.7,3.7-0.7c1.3,0,2.5,0.2,3.7,0.7
		c1.1,0.4,2.1,1.1,2.9,1.8s1.5,1.7,1.9,2.7c0.5,1,0.7,2.1,0.7,3.3c0,1.3-0.2,2.6-0.7,3.7c-0.5,1.2-1.1,2.2-1.9,3
		c-0.8,0.9-1.8,1.5-2.9,2.1C192,264,190.8,264.3,189.5,264.3z M190.1,263c0.7,0,1.3-0.2,1.9-0.5c0.6-0.3,1.1-0.8,1.5-1.4
		c0.4-0.6,0.7-1.3,1-2.1s0.3-1.6,0.3-2.5c0-1.3-0.1-2.4-0.3-3.5c-0.2-1.1-0.6-2.1-1-2.9c-0.5-0.8-1.1-1.5-1.9-1.9
		c-0.8-0.5-1.7-0.7-2.9-0.7c-0.6,0-1.1,0.2-1.7,0.5c-0.5,0.3-1,0.8-1.4,1.4c-0.4,0.6-0.8,1.3-1,2c-0.2,0.8-0.4,1.6-0.4,2.5
		c0,1.3,0.1,2.5,0.4,3.6c0.3,1.1,0.7,2.1,1.2,2.9c0.5,0.8,1.1,1.5,1.9,2S189.2,263,190.1,263z"/>
	<path class="st3" d="M214.8,263.9h-3.5v-2.4c-0.4,0.3-0.8,0.6-1.2,1c-0.4,0.3-0.8,0.6-1.3,0.9s-1,0.5-1.5,0.7
		c-0.6,0.2-1.2,0.3-1.9,0.3c-0.7,0-1.3-0.1-1.9-0.3s-1-0.5-1.4-0.9c-0.4-0.4-0.7-0.8-0.9-1.4c-0.2-0.5-0.3-1.1-0.3-1.7
		c0-0.7,0.1-1.4,0.4-2c0.3-0.6,0.7-1.1,1.2-1.6s1.1-0.9,1.8-1.3s1.4-0.7,2.2-1c0.8-0.3,1.6-0.5,2.4-0.8c0.8-0.2,1.6-0.4,2.4-0.6
		v-1.1c0-0.8-0.1-1.4-0.2-2c-0.2-0.5-0.4-1-0.7-1.3s-0.6-0.6-1.1-0.7s-0.9-0.2-1.4-0.2c-0.6,0-1.1,0.1-1.4,0.2s-0.7,0.4-0.9,0.6
		c-0.2,0.2-0.4,0.5-0.4,0.8s-0.1,0.6-0.1,1c0,0.3,0,0.6-0.1,0.9c-0.1,0.3-0.1,0.5-0.3,0.7c-0.1,0.2-0.3,0.4-0.5,0.5
		c-0.2,0.1-0.5,0.2-0.8,0.2c-0.5,0-1-0.2-1.3-0.6c-0.3-0.4-0.5-0.9-0.5-1.5c0-0.6,0.2-1.1,0.6-1.6c0.4-0.5,0.9-0.9,1.5-1.3
		c0.6-0.4,1.4-0.6,2.2-0.9c0.8-0.2,1.7-0.3,2.7-0.3c1.1,0,2.1,0.1,2.9,0.3c0.8,0.2,1.4,0.5,1.9,0.9c0.5,0.4,0.8,0.9,1.1,1.5
		s0.3,1.2,0.3,1.9V263.9z M211.3,253.8c-0.7,0.2-1.5,0.5-2.3,0.9c-0.8,0.3-1.6,0.7-2.2,1.2c-0.7,0.4-1.2,0.9-1.7,1.5
		s-0.7,1.1-0.7,1.7c0,0.4,0.1,0.8,0.2,1.2c0.2,0.4,0.4,0.7,0.6,1c0.3,0.3,0.6,0.5,0.9,0.7c0.3,0.2,0.7,0.3,1.1,0.3
		c0.4,0,0.8-0.1,1.1-0.2c0.3-0.1,0.7-0.2,1-0.4c0.3-0.2,0.7-0.4,1-0.6c0.3-0.2,0.7-0.5,1-0.7V253.8z"/>
	<path class="st3" d="M224.9,263.1c0.5,0,0.9-0.1,1.3-0.2c0.4-0.1,0.7-0.3,1-0.6c0.3-0.2,0.5-0.5,0.7-0.8s0.2-0.6,0.2-1
		c0-0.5-0.1-1-0.4-1.4c-0.3-0.4-0.6-0.7-1.1-1.1c-0.4-0.3-0.9-0.6-1.5-0.9s-1.1-0.5-1.7-0.8s-1.1-0.6-1.7-0.9
		c-0.6-0.3-1.1-0.7-1.5-1.1c-0.4-0.4-0.8-0.9-1.1-1.4c-0.3-0.5-0.4-1.2-0.4-1.9c0-0.7,0.1-1.3,0.4-1.9c0.3-0.6,0.7-1.1,1.2-1.5
		c0.5-0.4,1.2-0.8,1.9-1c0.7-0.2,1.5-0.4,2.4-0.4c0.6,0,1.1,0,1.6,0.1c0.5,0.1,1,0.2,1.5,0.5s1,0.6,1.4,1c0.5,0.4,1,1,1.5,1.7
		l-1.3,1.1c-0.7-1.1-1.4-1.9-2.2-2.4c-0.8-0.5-1.7-0.8-2.6-0.8c-0.5,0-0.9,0.1-1.4,0.2s-0.8,0.3-1,0.5c-0.3,0.2-0.5,0.5-0.7,0.7
		c-0.2,0.3-0.2,0.6-0.2,0.9c0,0.5,0.1,1,0.4,1.4s0.7,0.7,1.2,1.1s1,0.6,1.6,0.9c0.6,0.3,1.2,0.5,1.9,0.8c0.6,0.3,1.3,0.6,1.9,0.9
		c0.6,0.3,1.1,0.7,1.6,1.1c0.5,0.4,0.9,0.9,1.2,1.4s0.4,1.2,0.4,1.9c0,0.7-0.1,1.4-0.4,2.1c-0.3,0.6-0.7,1.2-1.2,1.7
		s-1.2,0.8-2.1,1.1s-1.8,0.4-2.9,0.4c-0.5,0-1,0-1.6-0.1c-0.5-0.1-1.1-0.2-1.6-0.5c-0.5-0.2-1.1-0.6-1.6-1c-0.5-0.4-1.1-1-1.6-1.7
		l1.4-1.3c0.4,0.6,0.8,1.1,1.2,1.5c0.4,0.4,0.8,0.8,1.2,1c0.4,0.3,0.8,0.5,1.2,0.6C224,263,224.4,263.1,224.9,263.1z"/>
	<path class="st3" d="M244.3,261.7c-0.5,0.8-1.1,1.4-1.8,1.9c-0.8,0.5-1.7,0.7-2.8,0.7c-0.6,0-1.1-0.1-1.5-0.3
		c-0.4-0.2-0.8-0.5-1.1-0.8s-0.5-0.8-0.6-1.3c-0.1-0.5-0.2-1-0.2-1.7V248h-3v-0.9c1,0,1.8-0.2,2.4-0.5c0.6-0.3,1.1-0.8,1.5-1.4
		c0.4-0.6,0.7-1.3,0.9-2.1c0.2-0.8,0.4-1.6,0.6-2.5h1v5.9h3.9v1.5h-3.9v12.2c0,0.5,0.2,1,0.5,1.3s0.8,0.5,1.3,0.5
		c0.4,0,0.7-0.1,1.1-0.3c0.3-0.2,0.6-0.4,0.8-0.7L244.3,261.7z"/>
	<path class="st3" d="M254.1,264.3c-1.2,0-2.3-0.2-3.3-0.7c-1-0.4-1.9-1-2.7-1.8c-0.8-0.8-1.4-1.7-1.8-2.7c-0.4-1-0.7-2.1-0.7-3.3
		c0-1.4,0.2-2.7,0.6-3.9s1-2.2,1.7-3.1c0.7-0.9,1.6-1.5,2.7-2s2.2-0.7,3.5-0.7c1.1,0,2.2,0.2,3.1,0.6c0.9,0.4,1.8,0.9,2.4,1.6
		c0.7,0.7,1.2,1.5,1.6,2.3c0.4,0.9,0.6,1.8,0.6,2.8h-13c0,1.2,0.1,2.2,0.4,3.2s0.7,1.9,1.3,2.6c0.5,0.7,1.2,1.3,1.9,1.7
		c0.7,0.4,1.6,0.6,2.5,0.6c0.7,0,1.5-0.1,2.2-0.4c0.7-0.2,1.3-0.6,1.9-1c0.6-0.4,1-0.9,1.4-1.4s0.7-1,0.8-1.6l1,0.4
		c-0.3,0.9-0.7,1.7-1.2,2.5c-0.5,0.8-1.2,1.5-1.9,2.1s-1.6,1-2.4,1.4C255.9,264.1,255,264.3,254.1,264.3z M257.6,252.1
		c0-0.7-0.1-1.3-0.4-1.8c-0.2-0.6-0.6-1.1-1-1.5c-0.4-0.4-0.9-0.7-1.4-1c-0.5-0.2-1.1-0.4-1.8-0.4c-0.5,0-1,0.1-1.5,0.4
		s-0.9,0.6-1.3,1c-0.4,0.4-0.7,0.9-0.9,1.5c-0.2,0.6-0.4,1.2-0.4,1.8H257.6z"/>
	<path class="st3" d="M277.9,262.2c-0.4,0.3-0.8,0.6-1.3,0.9c-0.5,0.3-1,0.5-1.4,0.7s-1,0.3-1.5,0.4c-0.5,0.1-1,0.1-1.5,0.1
		c-1,0-2-0.2-2.9-0.7c-0.9-0.5-1.7-1.1-2.3-1.9c-0.7-0.8-1.2-1.7-1.6-2.8s-0.6-2.2-0.6-3.4c0-1.2,0.2-2.3,0.7-3.4
		c0.5-1.1,1.1-2.1,2-3c0.8-0.9,1.8-1.6,2.9-2.1c1.1-0.5,2.3-0.8,3.5-0.8c0.8,0,1.6,0.1,2.2,0.4c0.6,0.3,1.2,0.7,1.8,1.2v-9.2l2.4-1
		h1v26.6h-3.4V262.2z M277.9,252c0-0.7-0.1-1.3-0.4-1.9s-0.6-1-1-1.4s-0.9-0.7-1.4-0.9c-0.5-0.2-1-0.3-1.6-0.3
		c-0.7,0-1.3,0.2-1.9,0.5c-0.6,0.3-1.1,0.8-1.6,1.4c-0.4,0.6-0.8,1.4-1.1,2.2c-0.3,0.9-0.4,1.8-0.4,2.8c0,1.1,0.1,2.1,0.4,3.1
		c0.3,1,0.7,1.8,1.2,2.5s1.1,1.3,1.7,1.7s1.4,0.6,2.1,0.6c0.4,0,0.7,0,1.1-0.1c0.4-0.1,0.7-0.2,1-0.4c0.3-0.2,0.6-0.4,0.9-0.6
		c0.3-0.2,0.5-0.4,0.8-0.7V252z"/>
</g>
</svg>
