<?xml version="1.0" encoding="utf-8"?>
<!-- Generator: Adobe Illustrator 19.2.1, SVG Export Plug-In . SVG Version: 6.00 Build 0)  -->
<svg version="1.2" baseProfile="tiny" id="Layer_1" xmlns="http://www.w3.org/2000/svg" xmlns:xlink="http://www.w3.org/1999/xlink"
	 x="0px" y="0px" viewBox="0 0 100 100" xml:space="preserve">
<g>
	<path fill="#FFFFFF" d="M55.2,48.2l6.3,29.1l6.3-29.1l6.3,29.1l5.6-29.1h1.9l-8.1,40.3h-1.4l-5.6-26.1l-5.6,26.1h-1.2L51,48.2H55.2
		z"/>
</g>
<g>
	<path fill="#FFFFFF" d="M33.8,30.1l2.8-2.2h1.2v27.9c0.3-1.1,0.7-2.2,1.3-3.2s1.1-1.9,1.7-2.6c0.6-0.8,1.3-1.4,1.9-1.8
		c0.7-0.4,1.3-0.7,1.9-0.7c1.2,0,2.2,0.5,3.2,1.4c1,0.9,1.8,2.2,2.5,3.8c0.7,1.6,1.3,3.5,1.7,5.6c0.4,2.2,0.6,4.5,0.6,6.9
		c0,2.2-0.1,4.3-0.4,6.3c-0.3,2-0.6,3.9-1.1,5.7c-0.5,1.8-1.1,3.4-1.7,4.8s-1.4,2.7-2.3,3.7c-0.8,1-1.7,1.8-2.7,2.4
		c-0.9,0.6-1.9,0.9-3,0.9c-1.5,0-2.9-0.4-4.2-1.2c-1.3-0.8-2.5-2-3.5-3.6V30.1z M37.8,81.6c0.2,0.5,0.5,1,0.8,1.5s0.6,0.9,1,1.3
		c0.4,0.4,0.8,0.7,1.2,1c0.4,0.2,0.9,0.4,1.5,0.4c0.9,0,1.8-0.4,2.5-1.3c0.8-0.9,1.4-2.1,1.9-3.7s1-3.5,1.3-5.7s0.4-4.6,0.4-7.2
		c0-2-0.2-3.8-0.5-5.6c-0.3-1.7-0.7-3.2-1.2-4.5c-0.5-1.3-1.1-2.3-1.9-3c-0.7-0.7-1.5-1.1-2.3-1.1c-0.4,0-0.9,0.1-1.4,0.4
		s-0.9,0.6-1.4,1c-0.4,0.4-0.8,1-1.2,1.6s-0.7,1.2-0.9,1.9V81.6z"/>
</g>
<circle fill="none" stroke="#FFFFFF" stroke-width="1.5837" stroke-miterlimit="10" cx="50.5" cy="49.7" r="47.6"/>
<g>
</g>
<g>
</g>
<g>
</g>
<g>
</g>
<g>
</g>
<g>
</g>
<g>
</g>
<g>
</g>
<g>
</g>
<g>
</g>
<g>
</g>
<g>
</g>
<g>
</g>
<g>
</g>
<g>
</g>
</svg>
