<?xml version="1.0" encoding="utf-8"?>
<!-- Generator: Adobe Illustrator 19.2.1, SVG Export Plug-In . SVG Version: 6.00 Build 0)  -->
<svg version="1.1" id="Layer_1" xmlns="http://www.w3.org/2000/svg" xmlns:xlink="http://www.w3.org/1999/xlink" x="0px" y="0px"
	 viewBox="0 0 82 100" style="enable-background:new 0 0 82 100;" xml:space="preserve">
<style type="text/css">
	.st0{fill:#FFFFFF;}
</style>
<g>
	<path class="st0" d="M37.3,34.2L46.9,79l9.7-44.8L66.3,79l8.6-44.8h2.9l-12.5,62h-2.2l-8.6-40.2L46,96.2h-1.8l-13.4-62H37.3z"/>
</g>
<g>
	<path class="st0" d="M4.3,6.4L8.6,3h1.8v42.9c0.5-1.7,1.1-3.4,2-4.9c0.9-1.5,1.7-2.9,2.6-4c0.9-1.2,2-2.2,2.9-2.8
		c1.1-0.6,2-1.1,2.9-1.1c1.8,0,3.4,0.8,4.9,2.2c1.5,1.4,2.8,3.4,3.8,5.8c1.1,2.5,2,5.4,2.6,8.6c0.6,3.4,0.9,6.9,0.9,10.6
		c0,3.4-0.2,6.6-0.6,9.7c-0.5,3.1-0.9,6-1.7,8.8c-0.8,2.8-1.7,5.2-2.6,7.4c-0.9,2.2-2.2,4.2-3.5,5.7c-1.2,1.5-2.6,2.8-4.2,3.7
		C19.3,96.5,17.7,97,16,97c-2.3,0-4.5-0.6-6.5-1.8c-2-1.2-3.8-3.1-5.4-5.5L4.3,6.4L4.3,6.4z M10.5,85.6c0.3,0.8,0.8,1.5,1.2,2.3
		c0.5,0.8,0.9,1.4,1.5,2s1.2,1.1,1.8,1.5c0.6,0.3,1.4,0.6,2.3,0.6c1.4,0,2.8-0.6,3.8-2c1.2-1.4,2.2-3.2,2.9-5.7
		c0.8-2.5,1.5-5.4,2-8.8c0.5-3.4,0.6-7.1,0.6-11.1c0-3.1-0.3-5.8-0.8-8.6c-0.5-2.6-1.1-4.9-1.8-6.9c-0.8-2-1.7-3.5-2.9-4.6
		c-1.1-1.1-2.3-1.7-3.5-1.7c-0.6,0-1.4,0.2-2.2,0.6c-0.8,0.5-1.4,0.9-2.2,1.5c-0.6,0.6-1.2,1.5-1.8,2.5c-0.6,0.9-1.1,1.8-1.4,2.9
		v35.4L10.5,85.6L10.5,85.6z"/>
</g>
</svg>
