<?xml version="1.0" encoding="utf-8"?>
<!-- Generator: Adobe Illustrator 19.2.1, SVG Export Plug-In . SVG Version: 6.00 Build 0)  -->
<svg version="1.2" baseProfile="tiny" id="Layer_1" xmlns="http://www.w3.org/2000/svg" xmlns:xlink="http://www.w3.org/1999/xlink"
	 x="0px" y="0px" viewBox="0 0 576 576" xml:space="preserve">
<g>
	<rect x="45" y="80" fill="#FFFFFF" width="486.6" height="334"/>
	<path d="M531.6,414.8c-10.1,0.5-20.3,0.9-30.4,1.3c-10.1,0.4-20.3,0.8-30.4,1c-10.1,0.3-20.3,0.7-30.4,0.9l-30.4,0.8
		c-10.1,0.3-20.3,0.4-30.4,0.7l-30.4,0.5l-30.4,0.4l-30.4,0.3l-30.4,0.3l-30.4,0.2l-30.4,0.1c-10.1,0-20.3,0-30.4-0.1
		c-10.1,0-20.3-0.2-30.4-0.3c-10.1-0.1-20.3-0.3-30.4-0.5l-30.4-0.6L45,419.1l-5.2-0.1l0.1-5l1-41.7l0.9-41.8
		c0.2-13.9,0.4-27.8,0.6-41.7l0.2-20.9l0.1-20.9l0-20.9l-0.1-20.9c-0.1-13.9-0.2-27.8-0.4-41.7l-0.7-41.7L40.6,80l-0.1-4.3l4.5-0.1
		l60.8-1.3L121,74l15.2-0.3l30.4-0.5l60.8-0.6l60.8-0.5l60.8-0.4l30.4-0.2l30.4-0.1l30.4,0l30.4,0.1l30.4,0.2l30.4,0.3l8.2,0.1
		l-0.1,8l-1,83.5l-0.7,41.7l-0.3,20.9l-0.4,20.9l-0.9,41.7l-1.1,41.8l-1.3,41.7l-0.7,20.9l-0.9,21.6L531.6,414.8z M530.7,413.2
		l-0.8-20l-0.7-20.9l-1.3-41.7l-1.1-41.8L526,247l-0.4-20.9l-0.3-20.9l-0.7-41.7l-1-83.5l8.1,8.1l-30.4,0.3l-30.4,0.2l-30.4,0.1
		l-30.4,0l-30.4-0.1l-30.4-0.2L288.3,88l-60.8-0.5l-60.8-0.6l-30.4-0.5L121,86l-15.2-0.3L45,84.4l4.4-4.4l-0.8,41.7l-0.7,41.7
		c-0.2,13.9-0.3,27.8-0.4,41.7l-0.1,20.9l0,20.9l0.1,20.9l0.2,20.9c0.1,13.9,0.3,27.8,0.6,41.7l0.9,41.8l1,41.7l-5.1-5.1l30.4-0.7
		l30.4-0.6c10.1-0.2,20.3-0.3,30.4-0.5c10.1-0.1,20.3-0.2,30.4-0.3c10.1-0.1,20.3-0.1,30.4-0.1l30.4,0.1l30.4,0.2l30.4,0.3l30.4,0.3
		l30.4,0.4l30.4,0.5c10.1,0.2,20.3,0.4,30.4,0.7l30.4,0.8c10.1,0.2,20.3,0.6,30.4,0.9c10.1,0.3,20.3,0.7,30.4,1
		C511,412.3,520.9,412.7,530.7,413.2z"/>
</g>
<path d="M41.5,78.3c0,0,0.3,0.1,0.8,0.3c0.5,0.2,1.4,0.5,2.4,0.9c1,0.4,2.3,0.9,3.8,1.6c1.5,0.6,3.2,1.3,5.1,2.2
	c3.8,1.7,8.4,3.7,13.6,6.2c5.2,2.5,11,5.4,17.3,8.6c3.1,1.6,6.4,3.4,9.7,5.2c3.4,1.8,6.8,3.7,10.3,5.7c7,4,14.4,8.2,21.9,12.8
	c3.8,2.2,7.6,4.6,11.4,7c1.9,1.2,3.8,2.4,5.8,3.6c1.9,1.2,3.8,2.5,5.8,3.7c7.8,4.9,15.5,10.2,23.3,15.4c3.8,2.7,7.7,5.3,11.5,8
	c3.8,2.6,7.6,5.4,11.3,8.1c1.9,1.4,3.7,2.7,5.6,4c1.8,1.4,3.6,2.7,5.5,4.1c3.6,2.7,7.2,5.4,10.6,8.1c7,5.4,13.6,10.7,19.8,15.8
	c6.2,5.1,12,10.1,17.4,14.7c5.3,4.7,10.1,9,14.3,13c4.2,3.9,7.8,7.5,10.7,10.4c0.7,0.7,1.4,1.4,2.1,2.1c0.6,0.7,1.2,1.3,1.8,1.9
	c1.1,1.2,2.1,2.2,2.8,3c0.8,0.8,1.3,1.5,1.7,1.9c0.4,0.4,0.6,0.7,0.6,0.7l-0.9,1.3c0,0-3.9-2.6-10.7-7.2c-3.4-2.3-7.5-5-12.3-8.2
	c-4.7-3.2-10.1-6.7-15.9-10.7c-23.2-15.8-54.2-36.8-85.1-57.8c-30.8-21.2-61.6-42.5-84.7-58.4c-5.8-4-11.1-7.7-15.7-10.9
	c-4.7-3.3-8.7-6.1-12.1-8.5c-6.7-4.7-10.5-7.4-10.5-7.4L41.5,78.3z"/>
<path d="M532.5,79.7c0,0-3.7,2.8-10.3,7.8c-3.3,2.5-7.2,5.5-11.8,8.9c-4.6,3.4-9.7,7.3-15.3,11.5c-5.6,4.2-11.7,8.7-18.2,13.5
	c-6.5,4.8-13.3,9.8-20.3,15c-7.1,5.2-14.3,10.6-21.8,16c-7.4,5.4-15,10.9-22.6,16.4c-7.6,5.5-15.1,11.1-22.4,16.7
	c-7.4,5.6-14.6,11-21.8,16c-7.2,5-14.3,9.6-21.2,13.8c-6.8,4.3-13.4,8.2-19.5,11.7c-12.2,7.1-22.6,12.5-30,16.2
	c-3.7,1.8-6.6,3.2-8.7,4.1c-2,0.9-3.1,1.4-3.1,1.4l-0.9-1.3c0,0,0.8-0.9,2.4-2.4c1.6-1.6,4-3.8,7-6.6c6.1-5.6,15-13.3,26-22.1
	c5.5-4.4,11.5-9.1,17.9-13.9c6.4-4.9,13.3-9.8,20.5-14.7c7.3-4.9,14.9-9.7,22.8-14.6c7.8-4.8,15.8-9.8,23.7-14.9
	c7.9-5.1,15.7-10.1,23.5-15.1c7.7-5,15.4-9.8,22.8-14.5c7.4-4.7,14.6-9.2,21.4-13.5c6.8-4.3,13.3-8.3,19.2-12
	c6-3.7,11.4-7.1,16.3-10.1c4.9-3,9.1-5.6,12.6-7.8c7-4.3,11-6.7,11-6.7L532.5,79.7z"/>
<g>
</g>
<g>
</g>
<g>
</g>
<g>
</g>
<g>
</g>
<g>
</g>
</svg>
